<svg width="120" height="120" viewBox="0 0 120 120" fill="none" xmlns="http://www.w3.org/2000/svg">
  <rect x="6" y="6" width="108" height="108" rx="28" fill="#e6c775" />
  <path 
    d="M60 34 C76.5685 34 90 45.6406 90 60 C90 74.3594 76.5685 86 60 86 C54.8 86 49.9 84.8 45.6 82.7 C39.5 86.5 32 87 32 87 C32 87 34.8 80.8 36.6 75.8 C31.5 71.4 28.5 66 28.5 60 C28.5 45.6406 41.4315 34 60 34 Z" 
    fill="#ffffff" 
    stroke="#09090b" 
    stroke-width="7" 
    stroke-linecap="round" 
    stroke-linejoin="round" 
  />
  <circle cx="44" cy="60.5" r="5.5" fill="#52525b" />
  <circle cx="60" cy="60.5" r="5.5" fill="#52525b" />
  <circle cx="76" cy="60.5" r="5.5" fill="#52525b" />
</svg>